<svg id="Layer_1" data-name="Layer 1" xmlns="http://www.w3.org/2000/svg" viewBox="0 0 1920 1080"><defs><style>.cls-1{fill:#3c9;}.cls-2{fill:#09f;}</style></defs><path class="cls-1" d="M724.1,535.6a74.5,74.5,0,0,0-14.8-22.5,68.8,68.8,0,0,0-21.4-15.3,59,59,0,0,0-25.6-5.6,66.1,66.1,0,0,0-33.3,9,69,69,0,0,0-25.4,26c-6.5,11.3-9.7,24.9-9.7,40.8,0,13.7,3,26,8.9,36.8a65.6,65.6,0,0,0,25.5,25.7c11.1,6.3,24.2,9.4,39.3,9.4a76.1,76.1,0,0,0,25.8-4.4c8.3-2.9,14.8-6.3,19.4-10.2s7.4-8.3,7.4-13.1a12.9,12.9,0,0,0-3.8-9.3,13.2,13.2,0,0,0-9.7-4,20.3,20.3,0,0,0-9.1,2.4l-6.5,3.9a33.3,33.3,0,0,1-9.4,3.8c-3.9,1.1-9.2,1.6-15.7,1.6a41,41,0,0,1-35.5-20.3,40.2,40.2,0,0,1-5-13.2h87.8a16.7,16.7,0,0,0,11.2-4,13.8,13.8,0,0,0,5.1-10.4A68.7,68.7,0,0,0,724.1,535.6Zm-88.2-5.2a27.3,27.3,0,0,1,12-7.2,50.6,50.6,0,0,1,14.9-2.1,34.9,34.9,0,0,1,15.5,3.6,34.3,34.3,0,0,1,12.2,9.7,24.6,24.6,0,0,1,5.5,13.8v1.9H626.3a44.9,44.9,0,0,1,1.6-6.1C629.9,538.3,632.5,533.8,635.9,530.4Z"/><path class="cls-1" d="M776.6,444.7a14.9,14.9,0,0,0-11.3-4.7,15.7,15.7,0,0,0-11.6,4.7,15.8,15.8,0,0,0-4.7,11.6V621.2a16.1,16.1,0,0,0,4.5,11.6,15.3,15.3,0,0,0,11.2,4.7,15.7,15.7,0,0,0,11.6-4.7,15.8,15.8,0,0,0,4.7-11.6V456.3A16.4,16.4,0,0,0,776.6,444.7Z"/><path class="cls-1" d="M828,494.6a15.6,15.6,0,0,0-11.5,4.7,16.1,16.1,0,0,0-4.5,11.6V621.1a15.9,15.9,0,0,0,4.5,11.6,16.4,16.4,0,0,0,23,0,15.9,15.9,0,0,0,4.5-11.6V510.9a16.1,16.1,0,0,0-4.5-11.6A15.6,15.6,0,0,0,828,494.6Z"/><path class="cls-1" d="M841.2,448.6q-3.7-3-13.2-3c-5.8,0-10,1-12.8,2.8s-4.2,5.5-4.2,10.7v5.1c0,5.1,1.3,8.6,3.8,10.6s6.8,2.9,12.9,2.9,10.6-.9,13.3-2.8,4-5.4,4-10.7v-5.1C845,454.1,843.7,450.6,841.2,448.6Z"/><path class="cls-1" d="M998.3,499.2a14.6,14.6,0,0,0-10.7-4.1c-6.4-.4-11.1,3-14.1,10.1L937.1,589l-36.8-84.1a15.5,15.5,0,0,0-6.4-7.6,18.5,18.5,0,0,0-9.3-2.5c-4.8,0-8.6,1.6-11.4,4.7s-4.3,6.2-4.3,9.4a18.5,18.5,0,0,0,.7,5.1,21.4,21.4,0,0,0,1.2,3.4l49.5,109.7a17,17,0,0,0,7,8.3,14.5,14.5,0,0,0,9.7,1.8c6.2-.3,10.8-3.7,13.6-10.1l49.7-109.7a20.8,20.8,0,0,0,1.5-4,14.6,14.6,0,0,0,.7-3.9A14,14,0,0,0,998.3,499.2Z"/><path class="cls-1" d="M1143.3,535.6a72.7,72.7,0,0,0-14.8-22.5,68.8,68.8,0,0,0-21.4-15.3,59,59,0,0,0-25.6-5.6,66.1,66.1,0,0,0-33.3,9,69,69,0,0,0-25.4,26c-6.5,11.3-9.7,24.9-9.7,40.8,0,13.7,3,26,8.9,36.8a66.3,66.3,0,0,0,25.5,25.7c11.1,6.3,24.2,9.4,39.3,9.4a75.6,75.6,0,0,0,25.8-4.4c8.3-2.9,14.8-6.3,19.4-10.2s7.5-8.3,7.5-13.1a13,13,0,0,0-3.9-9.3,13.2,13.2,0,0,0-9.7-4,20.3,20.3,0,0,0-9.1,2.4l-6.5,3.9a33.3,33.3,0,0,1-9.4,3.8c-3.9,1.1-9.2,1.6-15.7,1.6a41,41,0,0,1-35.5-20.3,40.2,40.2,0,0,1-5-13.2h87.8a16.7,16.7,0,0,0,11.2-4,13.8,13.8,0,0,0,5.1-10.4A68.7,68.7,0,0,0,1143.3,535.6Zm-88.4-5.2a27.8,27.8,0,0,1,12-7.2,50.6,50.6,0,0,1,14.9-2.1,34.9,34.9,0,0,1,15.5,3.6,34.3,34.3,0,0,1,12.2,9.7,24.6,24.6,0,0,1,5.5,13.8v1.9h-69.7a44.9,44.9,0,0,1,1.6-6.1C1048.9,538.3,1051.5,533.8,1054.9,530.4Z"/><path class="cls-1" d="M1260.6,496.5a20.4,20.4,0,0,0-13.5-4.5,55,55,0,0,0-13.3,1.6,46.5,46.5,0,0,0-12.5,4.9,44.7,44.7,0,0,0-10.6,8.3,39.4,39.4,0,0,0-5.7,7.7v-3.6a16.1,16.1,0,0,0-4.5-11.6,16.4,16.4,0,0,0-23,0,16.1,16.1,0,0,0-4.5,11.6V621.1a15.9,15.9,0,0,0,4.5,11.6,16.4,16.4,0,0,0,23,0,15.9,15.9,0,0,0,4.5-11.6V557.9a49.3,49.3,0,0,1,2.5-16.7,36.9,36.9,0,0,1,6.7-11.9,26.9,26.9,0,0,1,9.1-7,23.3,23.3,0,0,1,9.7-2.3,22.1,22.1,0,0,1,9.5,1.9,22.5,22.5,0,0,0,9.2,1.8,15.1,15.1,0,0,0,9.8-3.8c3.1-2.6,4.6-6.8,4.6-12.7C1266.1,503.1,1264.2,499.5,1260.6,496.5Z"/><path class="cls-1" d="M1341.3,478.9a15.2,15.2,0,0,1,5-6.7c2.4-1.9,5.8-2.9,10.2-2.9a38.5,38.5,0,0,1,9.4,1.2,32.8,32.8,0,0,0,7.2,1.2,12.3,12.3,0,0,0,8.9-3.9c2.6-2.5,3.9-6,3.9-10.4a12.4,12.4,0,0,0-3.8-9.4,23.3,23.3,0,0,0-9.3-5.1,40.4,40.4,0,0,0-11.5-1.6c-17.7,0-31.1,4.3-40,12.9a42.5,42.5,0,0,0-13.3,31.7V498h-14.4a15,15,0,0,0-10.7,4.1,15.1,15.1,0,0,0,0,20.9,15,15,0,0,0,10.7,4.1H1308v93.4a16,16,0,1,0,32,0V527.1h24.3a14.8,14.8,0,0,0,10.6-4.1,14.8,14.8,0,0,0,0-20.9,14.8,14.8,0,0,0-10.6-4.1H1340V485.6A20.7,20.7,0,0,1,1341.3,478.9Z"/><path class="cls-1" d="M1516.5,499.5a16.4,16.4,0,0,0-23,0,15.9,15.9,0,0,0-4.5,11.6v67.5c0,10.9-2.4,18.9-7.2,24.2s-12.1,7.9-21.9,7.9-16.9-2.6-21.7-7.9-7.2-13.3-7.2-24.2V511.1a15.9,15.9,0,0,0-4.5-11.6,16.4,16.4,0,0,0-23,0,15.9,15.9,0,0,0-4.5,11.6v67.5c0,18.8,5.2,33.8,15.6,44.8s25.5,16.6,45.3,16.6,34.8-5.5,45.4-16.6,15.7-26,15.7-44.8V511.1A15.9,15.9,0,0,0,1516.5,499.5Z"/><path class="cls-1" d="M1572.6,444.7a14.9,14.9,0,0,0-11.3-4.7,15.7,15.7,0,0,0-11.6,4.7,15.8,15.8,0,0,0-4.7,11.6V621.2a16.1,16.1,0,0,0,4.5,11.6,15.3,15.3,0,0,0,11.2,4.7,15.7,15.7,0,0,0,11.6-4.7,15.8,15.8,0,0,0,4.7-11.6V456.3A16.4,16.4,0,0,0,1572.6,444.7Z"/><path class="cls-1" d="M569.2,508a87.5,87.5,0,0,0-15.4-29.7,71.2,71.2,0,0,0-25.1-20.1c-9.9-4.8-21.2-7.2-34-7.2H431.2a15.8,15.8,0,0,0-11.6,4.7,15.5,15.5,0,0,0-4.6,11.5V620.9a15.7,15.7,0,0,0,16.2,16.2h63.5c17.2,0,31.7-4.1,43.5-12.5s20.7-19.5,26.9-33.6,9.3-29.7,9.3-46.9A121.2,121.2,0,0,0,569.2,508Zm-34.4,66.6a49,49,0,0,1-15.5,22.9c-7.1,5.7-16.2,8.6-27.4,8.6H448V481h43.9c8.3,0,15.5,1.7,21.5,5.1a42.6,42.6,0,0,1,14.9,13.7,62.6,62.6,0,0,1,8.7,20,101.4,101.4,0,0,1,2.8,23.8A94.2,94.2,0,0,1,534.8,574.6Z"/><path class="cls-2" d="M375,494.5c-2.7-2.1-7.3-3.1-14-3.1s-10.6,1-13.6,3-4.4,5.7-4.4,11.3v5.4c0,5.3,1.3,9.1,4,11.2s7.2,3.1,13.7,3.1,11.2-1,14-3,4.3-5.8,4.3-11.3v-5.4C379,500.3,377.7,496.6,375,494.5Z"/><path class="cls-2" d="M375,562.5c-2.7-2.1-7.3-3.2-14-3.2s-10.6,1-13.6,3-4.4,5.8-4.4,11.3v5.5c0,5.3,1.3,9,4,11.1s7.2,3.2,13.7,3.2,11.2-1,14-3.1,4.3-5.7,4.3-11.2v-5.5C379,568.3,377.7,564.6,375,562.5Z"/></svg>