<svg width="53" height="24" viewBox="0 0 53 24" fill="none" xmlns="http://www.w3.org/2000/svg">
<path d="M52.9108 15.1127L50.4645 12.6316L48.0183 15.1127L50.4645 17.5937L52.9108 15.1127Z" fill="#8DED2D"/>
<path fill-rule="evenodd" clip-rule="evenodd" d="M40.985 6.31575C42.5537 6.31575 43.8832 7.22343 44.2819 8.98241H37.5013C37.9005 7.33331 39.1499 6.31575 40.985 6.31575ZM43.7911 13.3525C43.1766 13.9658 42.3841 14.3715 41.3557 14.3715C39.3147 14.3715 37.9858 13.4827 37.6189 11.9322H47.6093C47.6886 11.3076 47.7415 10.8467 47.7415 10.3858C47.7415 8.35224 47.1058 6.67123 45.8337 5.28852C44.5882 3.9056 42.9716 3.22803 41.0376 3.22803C38.9968 3.22803 37.3009 3.9056 36.0027 5.28852C34.704 6.64409 34.0417 8.35224 34.0417 10.3858C34.0417 12.4463 34.704 14.1544 36.029 15.5102C37.3541 16.866 39.1029 17.5438 41.3026 17.5438C43.2714 17.5438 44.8231 16.8467 46.0268 15.6401L43.7911 13.3525Z" fill="#8DED2D"/>
<path fill-rule="evenodd" clip-rule="evenodd" d="M3.43934 8.94151L3.52113 -0.982422H0V17.5439H3.52113L3.58876 13.9763L5.75804 11.6895L9.60621 17.5439H13.7364L8.16159 9.04814L9.52147 7.59154C10.2928 6.77838 11.3327 6.32527 12.4424 6.32527H14.3225L14.3445 3.23112L11.4092 3.23134C9.82877 3.23157 8.31628 3.88561 7.21776 5.04396L3.43934 8.94151Z" fill="#8DED2D"/>
<path fill-rule="evenodd" clip-rule="evenodd" d="M28.3682 3.22803H26.8933C24.7712 3.22803 22.8861 4.61621 22.2088 6.67755L20.3733 12.2636L19.6731 14.3942C18.7549 14.2869 17.8721 13.7662 17.6039 12.9498C17.0437 11.2448 16.6235 9.96605 16.3434 9.11355C15.9136 7.80566 15.269 5.84382 14.4095 3.22803H12.4963L11.0995 3.34273C10.962 3.46066 10.9092 3.56822 10.9412 3.66542C11.7188 6.03227 12.8854 9.58255 14.4407 14.3163C14.9701 15.9272 16.0827 17.563 18.5426 17.8343L16.5167 24H20.2008L25.5608 7.58153C25.8432 6.72212 26.8084 6.31575 27.6932 6.31575H28.3801L28.3682 3.22803Z" fill="#8DED2D"/>
<path fill-rule="evenodd" clip-rule="evenodd" d="M34.3538 11.0988C34.6026 12.7353 33.8134 14.2429 32.5214 14.2429C31.3226 14.2429 30.3601 13.2521 30.3601 11.564V6.17536H33.4616V3.22799H30.3601L30.3604 -0.842183L26.9142 -0.845215C26.9142 1.42056 26.9142 3.1199 26.9142 4.25279C26.9142 5.73779 26.9142 7.96531 26.9142 10.9353C26.9142 14.0365 27.994 16.1565 29.9025 17.0891C31.9224 18.0762 34.2901 17.3483 35.5596 15.9409C36.6837 14.6943 37.4508 13.2165 37.1642 11.1308L34.3538 11.0988Z" fill="#8DED2D"/>
</svg>
