<svg xmlns="http://www.w3.org/2000/svg" viewBox="0 0 1234 200"><defs><style>.cls-1{fill:#fff;}</style></defs><g id="Layer_2" data-name="Layer 2"><g id="Layer_1-2" data-name="Layer 1"><path class="cls-1" d="M381.1,95.6a74.5,74.5,0,0,0-14.8-22.5,68.8,68.8,0,0,0-21.4-15.3,59,59,0,0,0-25.6-5.6,66.1,66.1,0,0,0-33.3,9,69,69,0,0,0-25.4,26c-6.5,11.3-9.7,24.9-9.7,40.8,0,13.7,3,26,8.9,36.8a65.6,65.6,0,0,0,25.5,25.7c11.1,6.3,24.2,9.4,39.3,9.4a76.1,76.1,0,0,0,25.8-4.4c8.3-2.9,14.8-6.3,19.4-10.2s7.4-8.3,7.4-13.1a12.9,12.9,0,0,0-3.8-9.3,13.2,13.2,0,0,0-9.7-4,20.3,20.3,0,0,0-9.1,2.4l-6.5,3.9a33.3,33.3,0,0,1-9.4,3.8c-3.9,1.1-9.2,1.6-15.7,1.6a41,41,0,0,1-35.5-20.3,40.2,40.2,0,0,1-5-13.2h87.8a16.7,16.7,0,0,0,11.2-4,13.8,13.8,0,0,0,5.1-10.4A68.7,68.7,0,0,0,381.1,95.6Zm-88.2-5.2a27.3,27.3,0,0,1,12-7.2,50.6,50.6,0,0,1,14.9-2.1,34.9,34.9,0,0,1,15.5,3.6,34.3,34.3,0,0,1,12.2,9.7,24.6,24.6,0,0,1,5.5,13.8v1.9H283.3a44.9,44.9,0,0,1,1.6-6.1C286.9,98.3,289.5,93.8,292.9,90.4Z"/><path class="cls-1" d="M433.6,4.7A14.9,14.9,0,0,0,422.3,0a15.7,15.7,0,0,0-11.6,4.7A15.8,15.8,0,0,0,406,16.3V181.2a16.1,16.1,0,0,0,4.5,11.6,15.3,15.3,0,0,0,11.2,4.7,15.7,15.7,0,0,0,11.6-4.7,15.8,15.8,0,0,0,4.7-11.6V16.3A16.4,16.4,0,0,0,433.6,4.7Z"/><path class="cls-1" d="M485,54.6a15.6,15.6,0,0,0-11.5,4.7A16.1,16.1,0,0,0,469,70.9V181.1a15.9,15.9,0,0,0,4.5,11.6,16.4,16.4,0,0,0,23,0,15.9,15.9,0,0,0,4.5-11.6V70.9a16.1,16.1,0,0,0-4.5-11.6A15.6,15.6,0,0,0,485,54.6Z"/><path class="cls-1" d="M498.2,8.6q-3.7-3-13.2-3c-5.8,0-10,1-12.8,2.8S468,13.9,468,19.1v5.1c0,5.1,1.3,8.6,3.8,10.6s6.8,2.9,12.9,2.9,10.6-.9,13.3-2.8,4-5.4,4-10.7V19.1C502,14.1,500.7,10.6,498.2,8.6Z"/><path class="cls-1" d="M655.3,59.2a14.6,14.6,0,0,0-10.7-4.1c-6.4-.4-11.1,3-14.1,10.1L594.1,149,557.3,64.9a15.5,15.5,0,0,0-6.4-7.6,18.5,18.5,0,0,0-9.3-2.5c-4.8,0-8.6,1.6-11.4,4.7s-4.3,6.2-4.3,9.4a18.5,18.5,0,0,0,.7,5.1,21.4,21.4,0,0,0,1.2,3.4l49.5,109.7a17,17,0,0,0,7,8.3,14.5,14.5,0,0,0,9.7,1.8c6.2-.3,10.8-3.7,13.6-10.1L657.3,77.4a20.8,20.8,0,0,0,1.5-4,14.6,14.6,0,0,0,.7-3.9A14,14,0,0,0,655.3,59.2Z"/><path class="cls-1" d="M800.3,95.6a72.7,72.7,0,0,0-14.8-22.5,68.8,68.8,0,0,0-21.4-15.3,59,59,0,0,0-25.6-5.6,66.1,66.1,0,0,0-33.3,9,69,69,0,0,0-25.4,26c-6.5,11.3-9.7,24.9-9.7,40.8,0,13.7,3,26,8.9,36.8a66.3,66.3,0,0,0,25.5,25.7c11.1,6.3,24.2,9.4,39.3,9.4a75.6,75.6,0,0,0,25.8-4.4c8.3-2.9,14.8-6.3,19.4-10.2s7.5-8.3,7.5-13.1a13,13,0,0,0-3.9-9.3,13.2,13.2,0,0,0-9.7-4,20.3,20.3,0,0,0-9.1,2.4l-6.5,3.9a33.3,33.3,0,0,1-9.4,3.8c-3.9,1.1-9.2,1.6-15.7,1.6a41,41,0,0,1-35.5-20.3,40.2,40.2,0,0,1-5-13.2h87.8a16.7,16.7,0,0,0,11.2-4,13.8,13.8,0,0,0,5.1-10.4A68.7,68.7,0,0,0,800.3,95.6Zm-88.4-5.2a27.8,27.8,0,0,1,12-7.2,50.6,50.6,0,0,1,14.9-2.1,34.9,34.9,0,0,1,15.5,3.6,34.3,34.3,0,0,1,12.2,9.7,24.6,24.6,0,0,1,5.5,13.8v1.9H702.3a44.9,44.9,0,0,1,1.6-6.1C705.9,98.3,708.5,93.8,711.9,90.4Z"/><path class="cls-1" d="M917.6,56.5A20.4,20.4,0,0,0,904.1,52a55,55,0,0,0-13.3,1.6,46.5,46.5,0,0,0-12.5,4.9,44.7,44.7,0,0,0-10.6,8.3,39.4,39.4,0,0,0-5.7,7.7V70.9a16.1,16.1,0,0,0-4.5-11.6,16.4,16.4,0,0,0-23,0A16.1,16.1,0,0,0,830,70.9V181.1a15.9,15.9,0,0,0,4.5,11.6,16.4,16.4,0,0,0,23,0,15.9,15.9,0,0,0,4.5-11.6V117.9a49.3,49.3,0,0,1,2.5-16.7,36.9,36.9,0,0,1,6.7-11.9,26.9,26.9,0,0,1,9.1-7A23.3,23.3,0,0,1,890,80a22.1,22.1,0,0,1,9.5,1.9,22.5,22.5,0,0,0,9.2,1.8,15.1,15.1,0,0,0,9.8-3.8c3.1-2.6,4.6-6.8,4.6-12.7C923.1,63.1,921.2,59.5,917.6,56.5Z"/><path class="cls-1" d="M998.3,38.9a15.2,15.2,0,0,1,5-6.7c2.4-1.9,5.8-2.9,10.2-2.9a38.5,38.5,0,0,1,9.4,1.2,32.8,32.8,0,0,0,7.2,1.2,12.3,12.3,0,0,0,8.9-3.9c2.6-2.5,3.9-6,3.9-10.4a12.4,12.4,0,0,0-3.8-9.4,23.3,23.3,0,0,0-9.3-5.1,40.4,40.4,0,0,0-11.5-1.6c-17.7,0-31.1,4.3-40,12.9A42.5,42.5,0,0,0,965,45.9V58H950.6a15,15,0,0,0-10.7,4.1,14,14,0,0,0-4.2,10.4A14.1,14.1,0,0,0,939.9,83a15,15,0,0,0,10.7,4.1H965v93.4a16,16,0,1,0,32,0V87.1h24.3a14.8,14.8,0,0,0,10.6-4.1,13.8,13.8,0,0,0,4.3-10.5,13.7,13.7,0,0,0-4.3-10.4,14.8,14.8,0,0,0-10.6-4.1H997V45.6A20.7,20.7,0,0,1,998.3,38.9Z"/><path class="cls-1" d="M1173.5,59.5a16.4,16.4,0,0,0-23,0,15.9,15.9,0,0,0-4.5,11.6v67.5c0,10.9-2.4,18.9-7.2,24.2s-12.1,7.9-21.9,7.9-16.9-2.6-21.7-7.9-7.2-13.3-7.2-24.2V71.1a15.9,15.9,0,0,0-4.5-11.6,16.4,16.4,0,0,0-23,0,15.9,15.9,0,0,0-4.5,11.6v67.5c0,18.8,5.2,33.8,15.6,44.8s25.5,16.6,45.3,16.6,34.8-5.5,45.4-16.6,15.7-26,15.7-44.8V71.1A15.9,15.9,0,0,0,1173.5,59.5Z"/><path class="cls-1" d="M1229.6,4.7A14.9,14.9,0,0,0,1218.3,0a15.7,15.7,0,0,0-11.6,4.7,15.8,15.8,0,0,0-4.7,11.6V181.2a16.1,16.1,0,0,0,4.5,11.6,15.3,15.3,0,0,0,11.2,4.7,15.7,15.7,0,0,0,11.6-4.7,15.8,15.8,0,0,0,4.7-11.6V16.3A16.4,16.4,0,0,0,1229.6,4.7Z"/><path class="cls-1" d="M226.2,68a87.5,87.5,0,0,0-15.4-29.7,71.2,71.2,0,0,0-25.1-20.1c-9.9-4.8-21.2-7.2-34-7.2H88.2a15.8,15.8,0,0,0-11.6,4.7A15.5,15.5,0,0,0,72,27.2V180.9a15.7,15.7,0,0,0,16.2,16.2h63.5c17.2,0,31.7-4.1,43.5-12.5s20.7-19.5,26.9-33.6,9.3-29.7,9.3-46.9A121.2,121.2,0,0,0,226.2,68Zm-34.4,66.6a49,49,0,0,1-15.5,22.9c-7.1,5.7-16.2,8.6-27.4,8.6H105V41h43.9c8.3,0,15.5,1.7,21.5,5.1a42.6,42.6,0,0,1,14.9,13.7,62.6,62.6,0,0,1,8.7,20,101.4,101.4,0,0,1,2.8,23.8A94.2,94.2,0,0,1,191.8,134.6Z"/><path class="cls-1" d="M32,54.5c-2.7-2.1-7.3-3.1-14-3.1s-10.6,1-13.6,3S0,60.1,0,65.7v5.4c0,5.3,1.3,9.1,4,11.2s7.2,3.1,13.7,3.1,11.2-1,14-3S36,76.6,36,71.1V65.7C36,60.3,34.7,56.6,32,54.5Z"/><path class="cls-1" d="M32,122.5c-2.7-2.1-7.3-3.2-14-3.2s-10.6,1-13.6,3S0,128.1,0,133.6v5.5c0,5.3,1.3,9,4,11.1s7.2,3.2,13.7,3.2,11.2-1,14-3.1,4.3-5.7,4.3-11.2v-5.5C36,128.3,34.7,124.6,32,122.5Z"/></g></g></svg>