<svg id="Layer_1" data-name="Layer 1" xmlns="http://www.w3.org/2000/svg" viewBox="0 0 1920 1080"><defs><style>.cls-1{fill:#3c9;}.cls-2{fill:#09f;}</style></defs><path class="cls-1" d="M1475.9,371.2Q1451.8,292.3,1404,232a331.3,331.3,0,0,0-117.2-93.8q-69.5-33.6-158.7-33.6H831.7q-32.2,0-54,21.8c-14.4,14.5-21.7,32.5-21.7,54V898.8c0,21.5,7.3,39.6,21.7,54.1s32.5,21.7,54,21.7h296.4q120.2,0,202.7-58.4T1456.7,759q43.3-98.8,43.4-219.4Q1500.1,450.1,1475.9,371.2ZM1314.8,682.4q-23,66.5-72.5,106.8t-127.7,40.4H910v-584h204.6q58.2,0,100.4,23.6a202.6,202.6,0,0,1,69.4,64q27.3,40.4,40.3,93.2t13,111.2Q1337.7,615.9,1314.8,682.4Z"/><path class="cls-2" d="M569.4,309.8c-12.5-9.7-34.2-14.7-65.3-14.7q-42.7,0-63.4,14.1T420.1,362v25.3q0,37.5,18.6,52.1c12.5,9.9,33.8,14.7,64,14.7s52-4.6,65.4-14,20-26.9,20-52.8V362C588.1,337,581.8,319.7,569.4,309.8Z"/><path class="cls-2" d="M569.4,627.5c-12.5-9.8-34.2-14.7-65.3-14.7q-42.7,0-63.4,14.1t-20.6,52.7V705c0,25,6.2,42.3,18.6,52.1s33.8,14.7,64,14.7,52-4.7,65.4-14,20-26.9,20-52.8V679.6C588.1,654.7,581.8,637.3,569.4,627.5Z"/></svg>